ffmpeg started on 2025-06-20 at 17:17:18
Report written to "D:\Convert\FFMetrics\reports\psnr_report-6.txt"
Log level: 32
Command line:
ffmpeg -hide_banner -nostdin -i "G:\\\xc0\xed\xe8\xec\xe5\\[\xd2\xee\xef]\\\xc2\xee\xeb\xf7\xe8\xf6\xe0 \xe8 \xef\xf0\xff\xed\xee\xf1\xf2\xe8\\\xd2\xee\xf0\xe3\xee\xe2\xe5\xf6 \xe2\xf1\xf2\xf0\xe5\xf7\xe0\xe5\xf2 \xec\xf3\xe4\xf0\xf3\xfe \xe2\xee\xeb\xf7\xe8\xf6\xf3\\DC_Ookami_to_Koushinryou_Merchant_Meets_the_Wise_Wolf_17_Telegram_HEVC.mkv" -i "G:\\\xc0\xed\xe8\xec\xe5\\[\xd2\xee\xef]\\\xc2\xee\xeb\xf7\xe8\xf6\xe0 \xe8 \xef\xf0\xff\xed\xee\xf1\xf2\xe8\\\xd2\xee\xf0\xe3\xee\xe2\xe5\xf6 \xe2\xf1\xf2\xf0\xe5\xf7\xe0\xe5\xf2 \xec\xf3\xe4\xf0\xf3\xfe \xe2\xee\xeb\xf7\xe8\xf6\xf3\\DC_Ookami_to_Koushinryou_Merchant_Meets_the_Wise_Wolf_17_Telegram.mp4" -lavfi "[0:v]settb=AVTB,setpts=PTS-STARTPTS,format=pix_fmts=yuv420p10,fps=24000/1001,scale=1920:1080:flags=bicubic[main];[1:v]settb=AVTB,setpts=PTS-STARTPTS,format=pix_fmts=yuv420p,fps=24000/1001,scale=1920:1080:flags=bicubic[ref];[main][ref]psnr=eof_action=endall:stats_file='D\\:/Convert/FFMetrics/logs/psnr_logfile-6.txt'" -f null -
Input #0, matroska,webm, from 'G:\Аниме\[Топ]\Волчица и пряности\Торговец встречает мудрую волчицу\DC_Ookami_to_Koushinryou_Merchant_Meets_the_Wise_Wolf_17_Telegram_HEVC.mkv':
  Metadata:
    COMPATIBLE_BRANDS: isomiso2avc1mp41
    MAJOR_BRAND     : isom
    MINOR_VERSION   : 512
    ENCODER         : Lavf61.7.100
  Duration: 00:23:57.65, start: -0.021000, bitrate: 707 kb/s
  Stream #0:0: Video: hevc (Main 10), yuv420p10le(tv, bt709, progressive), 1920x1080 [SAR 1:1 DAR 16:9], 23.98 fps, 23.98 tbr, 1k tbn (default)
      Metadata:
        HANDLER_NAME    : VideoHandler
        VENDOR_ID       : [0][0][0][0]
        ENCODER         : Lavc61.19.100 libx265
        BPS             : 510918
        DURATION        : 00:23:56.559708333
        NUMBER_OF_FRAMES: 34443
        NUMBER_OF_BYTES : 91745579
        _STATISTICS_WRITING_APP: mkvpropedit v66.0.0 ('Josie') 64-bit
        _STATISTICS_WRITING_DATE_UTC: 2025-06-20 11:58:30
        _STATISTICS_TAGS: BPS DURATION NUMBER_OF_FRAMES NUMBER_OF_BYTES
  Stream #0:1: Audio: aac (LC), 48000 Hz, stereo, fltp (default)
      Metadata:
        HANDLER_NAME    : SoundHandler
        VENDOR_ID       : [0][0][0][0]
        ENCODER         : Lavc61.19.100 aac
        BPS             : 193233
        DURATION        : 00:23:57.653000000
        NUMBER_OF_FRAMES: 67391
        NUMBER_OF_BYTES : 34725407
        _STATISTICS_WRITING_APP: mkvpropedit v66.0.0 ('Josie') 64-bit
        _STATISTICS_WRITING_DATE_UTC: 2025-06-20 11:58:30
        _STATISTICS_TAGS: BPS DURATION NUMBER_OF_FRAMES NUMBER_OF_BYTES
Input #1, mov,mp4,m4a,3gp,3g2,mj2, from 'G:\Аниме\[Топ]\Волчица и пряности\Торговец встречает мудрую волчицу\DC_Ookami_to_Koushinryou_Merchant_Meets_the_Wise_Wolf_17_Telegram.mp4':
  Metadata:
    major_brand     : isom
    minor_version   : 512
    compatible_brands: isomiso2avc1mp41
    encoder         : Lavf61.1.100
  Duration: 00:23:57.63, start: 0.000000, bitrate: 3207 kb/s
  Stream #1:0[0x1](und): Video: h264 (High) (avc1 / 0x31637661), yuv420p(tv, bt709, progressive), 1920x1080 [SAR 1:1 DAR 16:9], 3062 kb/s, 23.98 fps, 23.98 tbr, 24k tbn (default)
      Metadata:
        handler_name    : VideoHandler
        vendor_id       : [0][0][0][0]
        encoder         : Lavc61.3.100 h264_qsv
  Stream #1:1[0x2](und): Audio: aac (HE-AACv2) (mp4a / 0x6134706D), 48000 Hz, stereo, fltp, 144 kb/s (default)
      Metadata:
        handler_name    : SoundHandler
        vendor_id       : [0][0][0][0]
Stream mapping:
  Stream #0:0 (hevc) -> settb:default
  Stream #1:0 (h264) -> settb:default
  psnr:default -> Stream #0:0 (wrapped_avframe)
  Stream #0:1 -> #0:1 (aac (native) -> pcm_s16le (native))
Output #0, null, to 'pipe:':
  Metadata:
    COMPATIBLE_BRANDS: isomiso2avc1mp41
    MAJOR_BRAND     : isom
    MINOR_VERSION   : 512
    encoder         : Lavf61.7.100
  Stream #0:0: Video: wrapped_avframe, yuv420p10le(tv, bt709, progressive), 1920x1080 [SAR 1:1 DAR 16:9], q=2-31, 200 kb/s, 23.98 fps, 23.98 tbn
      Metadata:
        encoder         : Lavc61.19.100 wrapped_avframe
  Stream #0:1: Audio: pcm_s16le, 48000 Hz, stereo, s16, 1536 kb/s (default)
      Metadata:
        HANDLER_NAME    : SoundHandler
        VENDOR_ID       : [0][0][0][0]
        _STATISTICS_TAGS: BPS DURATION NUMBER_OF_FRAMES NUMBER_OF_BYTES
        BPS             : 193233
        DURATION        : 00:23:57.653000000
        NUMBER_OF_FRAMES: 67391
        NUMBER_OF_BYTES : 34725407
        _STATISTICS_WRITING_APP: mkvpropedit v66.0.0 ('Josie') 64-bit
        _STATISTICS_WRITING_DATE_UTC: 2025-06-20 11:58:30
        encoder         : Lavc61.19.100 pcm_s16le
frame=  176 fps=0.0 q=-0.0 size=N/A time=00:00:07.34 bitrate=N/A speed=14.2x    frame=  417 fps=406 q=-0.0 size=N/A time=00:00:17.39 bitrate=N/A speed=16.9x    frame=  663 fps=427 q=-0.0 size=N/A time=00:00:27.65 bitrate=N/A speed=17.8x    frame=  873 fps=423 q=-0.0 size=N/A time=00:00:36.41 bitrate=N/A speed=17.6x    frame= 1127 fps=437 q=-0.0 size=N/A time=00:00:47.00 bitrate=N/A speed=18.2x    frame= 1407 fps=453 q=-0.0 size=N/A time=00:00:58.68 bitrate=N/A speed=18.9x    frame= 1622 fps=449 q=-0.0 size=N/A time=00:01:07.65 bitrate=N/A speed=18.7x    frame= 1821 fps=442 q=-0.0 size=N/A time=00:01:15.95 bitrate=N/A speed=18.4x    frame= 2021 fps=435 q=-0.0 size=N/A time=00:01:24.29 bitrate=N/A speed=18.1x    frame= 2234 fps=433 q=-0.0 size=N/A time=00:01:33.17 bitrate=N/A speed=  18x    frame= 2444 fps=431 q=-0.0 size=N/A time=00:01:41.93 bitrate=N/A speed=  18x    frame= 2658 fps=430 q=-0.0 size=N/A time=00:01:50.86 bitrate=N/A speed=17.9x    frame= 2835 fps=422 q=-0.0 size=N/A time=00:01:58.24 bitrate=N/A speed=17.6x    frame= 3026 fps=419 q=-0.0 size=N/A time=00:02:06.20 bitrate=N/A speed=17.5x    frame= 3245 fps=420 q=-0.0 size=N/A time=00:02:15.34 bitrate=N/A speed=17.5x    frame= 3444 fps=417 q=-0.0 size=N/A time=00:02:23.64 bitrate=N/A speed=17.4x    frame= 3615 fps=412 q=-0.0 size=N/A time=00:02:30.77 bitrate=N/A speed=17.2x    frame= 3826 fps=412 q=-0.0 size=N/A time=00:02:39.57 bitrate=N/A speed=17.2x    frame= 4097 fps=418 q=-0.0 size=N/A time=00:02:50.87 bitrate=N/A speed=17.4x    frame= 4381 fps=425 q=-0.0 size=N/A time=00:03:02.72 bitrate=N/A speed=17.7x    frame= 4642 fps=429 q=-0.0 size=N/A time=00:03:13.61 bitrate=N/A speed=17.9x    frame= 4900 fps=432 q=-0.0 size=N/A time=00:03:24.37 bitrate=N/A speed=  18x    frame= 5184 fps=437 q=-0.0 size=N/A time=00:03:36.21 bitrate=N/A speed=18.2x    frame= 5463 fps=442 q=-0.0 size=N/A time=00:03:47.85 bitrate=N/A speed=18.4x    frame= 5741 fps=445 q=-0.0 size=N/A time=00:03:59.44 bitrate=N/A speed=18.6x    frame= 5990 fps=447 q=-0.0 size=N/A time=00:04:09.83 bitrate=N/A speed=18.6x    frame= 6262 fps=450 q=-0.0 size=N/A time=00:04:21.21 bitrate=N/A speed=18.8x    frame= 6521 fps=451 q=-0.0 size=N/A time=00:04:31.98 bitrate=N/A speed=18.8x    frame= 6757 fps=452 q=-0.0 size=N/A time=00:04:41.82 bitrate=N/A speed=18.8x    frame= 7014 fps=453 q=-0.0 size=N/A time=00:04:52.54 bitrate=N/A speed=18.9x    frame= 7297 fps=456 q=-0.0 size=N/A time=00:05:04.38 bitrate=N/A speed=  19x    frame= 7579 fps=459 q=-0.0 size=N/A time=00:05:16.10 bitrate=N/A speed=19.2x    frame= 7851 fps=461 q=-0.0 size=N/A time=00:05:27.45 bitrate=N/A speed=19.2x    frame= 8100 fps=462 q=-0.0 size=N/A time=00:05:37.83 bitrate=N/A speed=19.3x    frame= 8364 fps=464 q=-0.0 size=N/A time=00:05:48.84 bitrate=N/A speed=19.3x    frame= 8626 fps=465 q=-0.0 size=N/A time=00:05:59.77 bitrate=N/A speed=19.4x    frame= 8886 fps=466 q=-0.0 size=N/A time=00:06:10.62 bitrate=N/A speed=19.4x    frame= 9156 fps=467 q=-0.0 size=N/A time=00:06:21.88 bitrate=N/A speed=19.5x    frame= 9434 fps=469 q=-0.0 size=N/A time=00:06:33.47 bitrate=N/A speed=19.6x    frame= 9710 fps=471 q=-0.0 size=N/A time=00:06:44.98 bitrate=N/A speed=19.6x    frame= 9980 fps=472 q=-0.0 size=N/A time=00:06:56.24 bitrate=N/A speed=19.7x    frame=10241 fps=473 q=-0.0 size=N/A time=00:07:07.13 bitrate=N/A speed=19.7x    frame=10503 fps=474 q=-0.0 size=N/A time=00:07:18.06 bitrate=N/A speed=19.8x    frame=10757 fps=474 q=-0.0 size=N/A time=00:07:28.65 bitrate=N/A speed=19.8x    frame=11006 fps=474 q=-0.0 size=N/A time=00:07:39.04 bitrate=N/A speed=19.8x    frame=11272 fps=475 q=-0.0 size=N/A time=00:07:50.13 bitrate=N/A speed=19.8x    frame=11524 fps=476 q=-0.0 size=N/A time=00:08:00.64 bitrate=N/A speed=19.8x    frame=11784 fps=476 q=-0.0 size=N/A time=00:08:11.49 bitrate=N/A speed=19.9x    frame=12055 fps=477 q=-0.0 size=N/A time=00:08:22.79 bitrate=N/A speed=19.9x    frame=12317 fps=478 q=-0.0 size=N/A time=00:08:33.72 bitrate=N/A speed=19.9x    frame=12577 fps=478 q=-0.0 size=N/A time=00:08:44.56 bitrate=N/A speed=19.9x    frame=12855 fps=479 q=-0.0 size=N/A time=00:08:56.16 bitrate=N/A speed=  20x    frame=13110 fps=480 q=-0.0 size=N/A time=00:09:06.79 bitrate=N/A speed=  20x    frame=13387 fps=481 q=-0.0 size=N/A time=00:09:18.34 bitrate=N/A speed=20.1x    frame=13667 fps=482 q=-0.0 size=N/A time=00:09:30.02 bitrate=N/A speed=20.1x    frame=13953 fps=483 q=-0.0 size=N/A time=00:09:41.95 bitrate=N/A speed=20.2x    frame=14185 fps=483 q=-0.0 size=N/A time=00:09:51.63 bitrate=N/A speed=20.1x    frame=14452 fps=483 q=-0.0 size=N/A time=00:10:02.76 bitrate=N/A speed=20.2x    frame=14723 fps=484 q=-0.0 size=N/A time=00:10:14.07 bitrate=N/A speed=20.2x    frame=14997 fps=485 q=-0.0 size=N/A time=00:10:25.49 bitrate=N/A speed=20.2x    frame=15244 fps=485 q=-0.0 size=N/A time=00:10:35.80 bitrate=N/A speed=20.2x    frame=15496 fps=485 q=-0.0 size=N/A time=00:10:46.31 bitrate=N/A speed=20.2x    frame=15774 fps=485 q=-0.0 size=N/A time=00:10:57.90 bitrate=N/A speed=20.2x    frame=16040 fps=486 q=-0.0 size=N/A time=00:11:09.00 bitrate=N/A speed=20.3x    frame=16307 fps=487 q=-0.0 size=N/A time=00:11:20.13 bitrate=N/A speed=20.3x    frame=16596 fps=488 q=-0.0 size=N/A time=00:11:32.19 bitrate=N/A speed=20.3x    frame=16843 fps=488 q=-0.0 size=N/A time=00:11:42.49 bitrate=N/A speed=20.3x    frame=17110 fps=488 q=-0.0 size=N/A time=00:11:53.62 bitrate=N/A speed=20.4x    frame=17382 fps=489 q=-0.0 size=N/A time=00:12:04.97 bitrate=N/A speed=20.4x    frame=17640 fps=489 q=-0.0 size=N/A time=00:12:15.73 bitrate=N/A speed=20.4x    frame=17909 fps=489 q=-0.0 size=N/A time=00:12:26.95 bitrate=N/A speed=20.4x    frame=18201 fps=490 q=-0.0 size=N/A time=00:12:39.13 bitrate=N/A speed=20.4x    frame=18490 fps=491 q=-0.0 size=N/A time=00:12:51.18 bitrate=N/A speed=20.5x    frame=18779 fps=492 q=-0.0 size=N/A time=00:13:03.24 bitrate=N/A speed=20.5x    frame=19074 fps=493 q=-0.0 size=N/A time=00:13:15.54 bitrate=N/A speed=20.6x    frame=19357 fps=494 q=-0.0 size=N/A time=00:13:27.34 bitrate=N/A speed=20.6x    frame=19646 fps=495 q=-0.0 size=N/A time=00:13:39.40 bitrate=N/A speed=20.6x    frame=19920 fps=495 q=-0.0 size=N/A time=00:13:50.83 bitrate=N/A speed=20.6x    frame=20196 fps=496 q=-0.0 size=N/A time=00:14:02.34 bitrate=N/A speed=20.7x    frame=20470 fps=496 q=-0.0 size=N/A time=00:14:13.76 bitrate=N/A speed=20.7x    frame=20747 fps=497 q=-0.0 size=N/A time=00:14:25.32 bitrate=N/A speed=20.7x    frame=21035 fps=497 q=-0.0 size=N/A time=00:14:37.33 bitrate=N/A speed=20.7x    frame=21317 fps=498 q=-0.0 size=N/A time=00:14:49.09 bitrate=N/A speed=20.8x    frame=21598 fps=498 q=-0.0 size=N/A time=00:15:00.81 bitrate=N/A speed=20.8x    frame=21850 fps=498 q=-0.0 size=N/A time=00:15:11.32 bitrate=N/A speed=20.8x    frame=22105 fps=498 q=-0.0 size=N/A time=00:15:21.96 bitrate=N/A speed=20.8x    frame=22352 fps=498 q=-0.0 size=N/A time=00:15:32.26 bitrate=N/A speed=20.8x    frame=22616 fps=498 q=-0.0 size=N/A time=00:15:43.27 bitrate=N/A speed=20.8x    frame=22905 fps=499 q=-0.0 size=N/A time=00:15:55.32 bitrate=N/A speed=20.8x    frame=23187 fps=499 q=-0.0 size=N/A time=00:16:07.09 bitrate=N/A speed=20.8x    frame=23449 fps=500 q=-0.0 size=N/A time=00:16:18.01 bitrate=N/A speed=20.8x    frame=23733 fps=500 q=-0.0 size=N/A time=00:16:29.86 bitrate=N/A speed=20.9x    frame=24004 fps=500 q=-0.0 size=N/A time=00:16:41.16 bitrate=N/A speed=20.9x    frame=24268 fps=501 q=-0.0 size=N/A time=00:16:52.17 bitrate=N/A speed=20.9x    frame=24532 fps=501 q=-0.0 size=N/A time=00:17:03.23 bitrate=N/A speed=20.9x    frame=24769 fps=500 q=-0.0 size=N/A time=00:17:13.07 bitrate=N/A speed=20.9x    frame=25046 fps=501 q=-0.0 size=N/A time=00:17:24.62 bitrate=N/A speed=20.9x    frame=25286 fps=500 q=-0.0 size=N/A time=00:17:34.63 bitrate=N/A speed=20.9x    frame=25562 fps=501 q=-0.0 size=N/A time=00:17:46.14 bitrate=N/A speed=20.9x    frame=25831 fps=501 q=-0.0 size=N/A time=00:17:57.36 bitrate=N/A speed=20.9x    frame=26093 fps=501 q=-0.0 size=N/A time=00:18:08.29 bitrate=N/A speed=20.9x    frame=26371 fps=501 q=-0.0 size=N/A time=00:18:19.89 bitrate=N/A speed=20.9x    frame=26641 fps=502 q=-0.0 size=N/A time=00:18:31.15 bitrate=N/A speed=20.9x    frame=26913 fps=502 q=-0.0 size=N/A time=00:18:42.49 bitrate=N/A speed=20.9x    frame=27171 fps=502 q=-0.0 size=N/A time=00:18:53.25 bitrate=N/A speed=20.9x    frame=27471 fps=502 q=-0.0 size=N/A time=00:19:05.81 bitrate=N/A speed=  21x    frame=27756 fps=503 q=-0.0 size=N/A time=00:19:17.65 bitrate=N/A speed=  21x    frame=28038 fps=503 q=-0.0 size=N/A time=00:19:29.41 bitrate=N/A speed=  21x    frame=28329 fps=504 q=-0.0 size=N/A time=00:19:41.55 bitrate=N/A speed=  21x    frame=28622 fps=504 q=-0.0 size=N/A time=00:19:53.77 bitrate=N/A speed=  21x    frame=28889 fps=505 q=-0.0 size=N/A time=00:20:04.91 bitrate=N/A speed=  21x    frame=29157 fps=505 q=-0.0 size=N/A time=00:20:16.13 bitrate=N/A speed=21.1x    frame=29425 fps=505 q=-0.0 size=N/A time=00:20:27.26 bitrate=N/A speed=21.1x    frame=29692 fps=505 q=-0.0 size=N/A time=00:20:38.40 bitrate=N/A speed=21.1x    frame=29913 fps=504 q=-0.0 size=N/A time=00:20:47.62 bitrate=N/A speed=  21x    frame=30174 fps=504 q=-0.0 size=N/A time=00:20:58.50 bitrate=N/A speed=  21x    frame=30434 fps=504 q=-0.0 size=N/A time=00:21:09.35 bitrate=N/A speed=  21x    frame=30717 fps=505 q=-0.0 size=N/A time=00:21:21.15 bitrate=N/A speed=  21x    frame=30987 fps=505 q=-0.0 size=N/A time=00:21:32.41 bitrate=N/A speed=21.1x    frame=31271 fps=505 q=-0.0 size=N/A time=00:21:44.26 bitrate=N/A speed=21.1x    frame=31543 fps=505 q=-0.0 size=N/A time=00:21:55.60 bitrate=N/A speed=21.1x    frame=31816 fps=506 q=-0.0 size=N/A time=00:22:06.99 bitrate=N/A speed=21.1x    frame=32070 fps=505 q=-0.0 size=N/A time=00:22:17.58 bitrate=N/A speed=21.1x    frame=32266 fps=505 q=-0.0 size=N/A time=00:22:25.76 bitrate=N/A speed=  21x    frame=32410 fps=503 q=-0.0 size=N/A time=00:22:31.76 bitrate=N/A speed=  21x    frame=32662 fps=503 q=-0.0 size=N/A time=00:22:42.27 bitrate=N/A speed=  21x    frame=32911 fps=502 q=-0.0 size=N/A time=00:22:52.66 bitrate=N/A speed=  21x    frame=33146 fps=502 q=-0.0 size=N/A time=00:23:02.46 bitrate=N/A speed=20.9x    frame=33339 fps=501 q=-0.0 size=N/A time=00:23:10.51 bitrate=N/A speed=20.9x    frame=33537 fps=500 q=-0.0 size=N/A time=00:23:18.77 bitrate=N/A speed=20.9x    frame=33790 fps=500 q=-0.0 size=N/A time=00:23:29.32 bitrate=N/A speed=20.9x    frame=34041 fps=500 q=-0.0 size=N/A time=00:23:39.79 bitrate=N/A speed=20.9x    frame=34220 fps=499 q=-0.0 size=N/A time=00:23:47.25 bitrate=N/A speed=20.8x    frame=34421 fps=498 q=-0.0 size=N/A time=00:23:55.64 bitrate=N/A speed=20.8x    [Parsed_psnr_10 @ 0000017353045b00] PSNR y:50.043970 u:51.492297 v:51.860954 average:50.522075 min:40.166634 max:inf
[out#0/null @ 00000173520954c0] video:14800KiB audio:269564KiB subtitle:0KiB other streams:0KiB global headers:0KiB muxing overhead: unknown
frame=34443 fps=498 q=-0.0 Lsize=N/A time=00:23:56.56 bitrate=N/A speed=20.8x    
